<?xml version="1.0" encoding="utf-8"?>
<!-- Generator: Adobe Illustrator 16.0.0, SVG Export Plug-In . SVG Version: 6.00 Build 0)  -->
<!DOCTYPE svg PUBLIC "-//W3C//DTD SVG 1.1//EN" "http://www.w3.org/Graphics/SVG/1.1/DTD/svg11.dtd">
<svg version="1.1" id="Layer_1" xmlns="http://www.w3.org/2000/svg" xmlns:xlink="http://www.w3.org/1999/xlink" x="0px" y="0px"
	 width="288px" height="288px" viewBox="0 0 288 288" enable-background="new 0 0 288 288" xml:space="preserve">
<g>
	<g>
		<path fill="#272829" d="M69.278,63.478c-2.176,0.299-4.155,2.09-4.754,4.211C66.555,67.185,68.49,65.456,69.278,63.478z"/>
		<path fill="#272829" d="M94.575,46.104c-0.228-0.031-0.457-0.059-0.692-0.059c-2.013,0-4.022,1.145-5.046,2.797
			C90.946,48.925,93.279,47.774,94.575,46.104z"/>
		<path fill="#272829" d="M101.478,42.646c-0.176-0.018-0.352-0.031-0.531-0.031c-2.084,0-4.165,1.182-5.14,2.885
			C97.974,45.491,100.28,44.308,101.478,42.646z"/>
		<path fill="#272829" d="M74.948,58.261c-2.162,0.387-4.132,2.17-4.65,4.295C72.337,61.968,74.241,60.222,74.948,58.261z"/>
		<path fill="#272829" d="M81.326,53.896H81.31c-2.178,0-4.397,1.529-5.284,3.52C78.11,57.198,80.271,55.751,81.326,53.896z"/>
		<path fill="#272829" d="M87.663,49.528c-2.19,0.082-4.402,1.617-5.2,3.596C84.557,52.815,86.699,51.347,87.663,49.528z"/>
		<path fill="#272829" d="M108.773,40.222c-0.447-0.127-0.919-0.203-1.414-0.203c-1.789,0-3.571,0.834-4.647,2.125
			c0.324,0.059,0.66,0.098,1.013,0.098C105.571,42.241,107.514,41.437,108.773,40.222z"/>
		<path fill="#272829" d="M138.952,34.64c-0.838-0.521-1.887-0.816-2.986-0.816c-1.24,0-2.413,0.367-3.345,0.998
			c0.835,0.404,1.847,0.635,2.912,0.635C136.78,35.456,137.977,35.161,138.952,34.64z"/>
		<path fill="#272829" d="M131.284,34.956c-0.649-0.264-1.379-0.4-2.143-0.4c-1.576,0-3.095,0.588-4.109,1.572
			c0.572,0.162,1.193,0.256,1.847,0.256C128.541,36.384,130.154,35.853,131.284,34.956z"/>
		<path fill="#272829" d="M123.672,36.374c-0.658-0.293-1.412-0.453-2.199-0.453c-1.524,0-3.015,0.564-4.057,1.502
			c0.587,0.189,1.232,0.312,1.921,0.312C120.931,37.735,122.509,37.224,123.672,36.374z"/>
		<path fill="#272829" d="M116.096,37.772c-0.415-0.104-0.845-0.174-1.301-0.174c-1.848,0-3.669,0.859-4.704,2.195
			c0.276,0.037,0.562,0.061,0.857,0.061C112.878,39.854,114.885,39.026,116.096,37.772z"/>
		<path fill="#272829" d="M42.643,100.784c-1.867,1.16-2.947,3.604-2.631,5.785C41.663,105.282,42.729,102.915,42.643,100.784z"/>
		<path fill="#272829" d="M33.404,138.007c-1.158,1.863-1.153,4.516,0.074,6.324C34.406,142.423,34.385,139.845,33.404,138.007z"/>
		<path fill="#272829" d="M37.502,115.282c-1.689,1.408-2.419,3.98-1.799,6.098C37.158,119.874,37.884,117.38,37.502,115.282z"/>
		<path fill="#272829" d="M35.421,122.718c-1.406,1.686-1.771,4.312-0.805,6.275C35.799,127.231,36.138,124.675,35.421,122.718z"/>
		<path fill="#272829" d="M34.428,130.353c-1.476,1.631-1.839,4.277-0.932,6.287C34.728,134.946,35.099,132.376,34.428,130.353z"/>
		<path fill="#272829" d="M143.221,35.169c1.29,0,2.488-0.316,3.447-0.875c-0.846-0.486-1.858-0.758-2.935-0.758
			c-1.281,0-2.476,0.379-3.396,1.057C141.183,34.966,142.176,35.169,143.221,35.169L143.221,35.169z"/>
		<path fill="#272829" d="M49.75,87.147c-2.011,0.887-3.42,3.156-3.409,5.361C48.154,91.464,49.538,89.267,49.75,87.147z"/>
		<path fill="#272829" d="M58.688,74.628c-2.113,0.6-3.824,2.648-4.123,4.834C56.506,78.679,58.183,76.698,58.688,74.628z"/>
		<path fill="#272829" d="M53.762,80.571c-1.97,0.969-3.371,3.223-3.286,5.408C52.272,84.853,53.622,82.651,53.762,80.571z"/>
		<path fill="#272829" d="M45.7,93.72c-1.816,1.232-2.89,3.656-2.502,5.809C44.82,98.163,45.85,95.798,45.7,93.72z"/>
		<path fill="#272829" d="M63.575,68.677c-2.087,0.684-3.788,2.721-4.008,4.896C61.505,72.706,63.146,70.716,63.575,68.677z"/>
		<path fill="#272829" d="M39.547,107.858c-1.628,1.473-2.354,4.025-1.669,6.104C39.294,112.382,39.984,109.896,39.547,107.858z"/>
		<path fill="#272829" d="M232.373,79.237c-0.078-2.186-1.643-4.33-3.68-5.148C228.988,76.151,230.496,78.245,232.373,79.237z"/>
		<path fill="#272829" d="M244.891,100.249c-0.285,2.064,0.588,4.49,2.117,5.959C247.535,104.087,246.621,101.599,244.891,100.249z"
			/>
		<path fill="#272829" d="M236.979,85.442c-0.154-2.201-1.727-4.357-3.797-5.094C233.551,82.446,235.094,84.534,236.979,85.442z"/>
		<path fill="#272829" d="M247.479,107.499c-0.225,2.119,0.684,4.553,2.246,5.945C250.186,111.288,249.268,108.778,247.479,107.499z
			"/>
		<path fill="#272829" d="M240.633,92.214c0.227-2.178-1.023-4.518-2.926-5.611C237.711,88.687,238.914,90.97,240.633,92.214z"/>
		<path fill="#272829" d="M244.332,98.999c0.154-2.201-1.104-4.557-3.053-5.574C241.352,95.556,242.59,97.837,244.332,98.999z"/>
		<path fill="#272829" d="M254.258,143.876c1.037-1.947,0.848-4.611-0.518-6.334C252.938,139.517,253.141,142.106,254.258,143.876z"
			/>
		<path fill="#272829" d="M253.771,151.552c1.344-1.725,1.523-4.371,0.49-6.307C253.162,147.015,252.971,149.587,253.771,151.552z"
			/>
		<path fill="#272829" d="M253.643,136.171c1.09-1.893,0.898-4.539-0.395-6.312C252.406,131.765,252.576,134.339,253.643,136.171z"
			/>
		<path fill="#272829" d="M250.105,114.761c-0.57,2.004-0.045,4.529,1.266,6.197C252.189,118.931,251.633,116.337,250.105,114.761z"
			/>
		<path fill="#272829" d="M154.322,35.046c-0.973-0.811-2.316-1.285-3.736-1.285c-0.918,0-1.799,0.203-2.557,0.57
			c1.049,0.709,2.436,1.125,3.902,1.125C152.783,35.456,153.6,35.308,154.322,35.046z"/>
		<path fill="#272829" d="M253.055,128.505c0.758-2.074,0.197-4.688-1.395-6.201C251.141,124.37,251.701,126.905,253.055,128.505z"
			/>
		<path fill="#272829" d="M191.369,45.04c-1.062-1.455-2.957-2.426-4.85-2.426c-0.367,0-0.725,0.045-1.068,0.119
			c1.27,1.402,3.355,2.361,5.312,2.361C190.973,45.095,191.17,45.063,191.369,45.04z"/>
		<path fill="#272829" d="M183.742,42.241c0.145,0,0.281-0.016,0.422-0.025c-1.018-1.502-2.967-2.504-4.924-2.504
			c-0.322,0-0.635,0.033-0.938,0.088C179.521,41.249,181.689,42.241,183.742,42.241z"/>
		<path fill="#272829" d="M227.812,73.04c-0.459-2.156-2.316-4.072-4.469-4.512C224,70.554,225.818,72.405,227.812,73.04z"/>
		<path fill="#272829" d="M169.494,37.581c-1.035-1.141-2.697-1.848-4.4-1.848c-0.611,0-1.203,0.098-1.748,0.275
			c1.184,1.068,2.973,1.727,4.783,1.727C168.605,37.735,169.059,37.675,169.494,37.581z"/>
		<path fill="#272829" d="M162.033,35.78c-0.992-0.773-2.328-1.225-3.709-1.225c-0.959,0-1.857,0.223-2.619,0.633
			c1.072,0.668,2.453,1.055,3.869,1.055C160.471,36.243,161.307,36.079,162.033,35.78z"/>
		<path fill="#272829" d="M177.025,39.382c-1.068-1.098-2.703-1.783-4.355-1.783c-0.648,0-1.256,0.117-1.818,0.324
			c1.223,1.01,2.988,1.656,4.689,1.656C176.07,39.579,176.561,39.501,177.025,39.382z"/>
		<path fill="#272829" d="M222.387,67.54c-0.379-2.154-2.227-4.061-4.359-4.59C218.605,64.954,220.391,66.819,222.387,67.54z"/>
		<path fill="#272829" d="M217.008,62.036c-0.756-2.07-2.861-3.709-5.053-3.848C212.889,60.104,214.945,61.685,217.008,62.036z"/>
		<path fill="#272829" d="M204.777,52.642c-1.027-1.928-3.318-3.279-5.533-3.104C200.43,51.274,202.697,52.565,204.777,52.642z"/>
		<path fill="#272829" d="M210.871,57.345c-0.668-2.047-2.775-3.699-4.957-3.938C206.766,55.312,208.793,56.909,210.871,57.345z"/>
		<path fill="#272829" d="M198.053,48.854c-0.914-1.879-3.105-3.232-5.289-3.232c-0.061,0-0.115,0.014-0.176,0.016
			C193.686,47.39,195.914,48.72,198.053,48.854z"/>
		<path fill="#272829" d="M37.623,174.739c0.366-2.09-0.365-4.564-1.814-6.062C35.208,170.79,35.943,173.339,37.623,174.739z"/>
		<path fill="#272829" d="M212.334,231.095c2.184-0.154,4.271-1.795,5.018-3.863C215.299,227.601,213.258,229.185,212.334,231.095z"
			/>
		<path fill="#272829" d="M206.297,235.901c2.18-0.234,4.299-1.9,4.957-3.959C209.174,232.382,207.143,233.991,206.297,235.901z"/>
		<path fill="#272829" d="M218.367,226.313c2.139-0.529,3.992-2.451,4.359-4.617C220.725,222.421,218.936,224.302,218.367,226.313z"
			/>
		<path fill="#272829" d="M199.662,239.804c2.184,0.143,4.486-1.229,5.502-3.135C203.096,236.751,200.84,238.062,199.662,239.804z"
			/>
		<path fill="#272829" d="M228.986,215.134c2.045-0.822,3.613-2.984,3.676-5.182C230.779,210.948,229.27,213.06,228.986,215.134z"/>
		<path fill="#272829" d="M223.678,220.706c2.141-0.457,3.979-2.371,4.43-4.521C226.127,216.835,224.326,218.687,223.678,220.706z"
			/>
		<path fill="#272829" d="M193.004,243.731c0.057,0.002,0.111,0.016,0.17,0.016c2.191,0,4.381-1.359,5.293-3.25
			C196.344,240.655,194.088,241.997,193.004,243.731z"/>
		<path fill="#272829" d="M171.312,251.544c0.553,0.199,1.146,0.312,1.783,0.312c1.662,0,3.307-0.693,4.375-1.807
			c-0.453-0.111-0.93-0.186-1.441-0.186C174.314,249.864,172.537,250.521,171.312,251.544z"/>
		<path fill="#272829" d="M163.807,253.481c0.541,0.176,1.129,0.271,1.736,0.271c1.711,0,3.381-0.713,4.416-1.863
			c-0.43-0.092-0.879-0.15-1.35-0.15C166.789,251.739,164.994,252.403,163.807,253.481z"/>
		<path fill="#272829" d="M178.744,249.63c0.301,0.053,0.609,0.086,0.93,0.086c1.965,0,3.92-1.01,4.938-2.523
			c-0.137-0.01-0.273-0.025-0.414-0.025C182.137,247.167,179.963,248.169,178.744,249.63z"/>
		<path fill="#272829" d="M185.893,246.671c0.332,0.07,0.676,0.111,1.031,0.111c1.902,0,3.803-0.982,4.865-2.449
			c-0.188-0.02-0.369-0.049-0.564-0.049C189.258,244.284,187.162,245.253,185.893,246.671z"/>
		<path fill="#272829" d="M156.176,254.345c0.754,0.398,1.641,0.617,2.584,0.617c1.395,0,2.74-0.459,3.738-1.246
			c-0.715-0.287-1.537-0.447-2.416-0.447C158.652,253.269,157.256,253.665,156.176,254.345z"/>
		<path fill="#272829" d="M247.645,181.622c1.768-1.287,2.668-3.781,2.209-5.928C248.309,177.093,247.416,179.515,247.645,181.622z"
			/>
		<path fill="#272829" d="M251.76,166.802c1.57-1.521,2.115-4.115,1.361-6.178C251.787,162.224,251.24,164.745,251.76,166.802z"/>
		<path fill="#272829" d="M233.467,208.839c2.055-0.75,3.609-2.9,3.756-5.092C235.354,204.667,233.828,206.749,233.467,208.839z"/>
		<path fill="#272829" d="M253.678,152.923c-1.068,1.844-1.23,4.436-0.369,6.346C254.607,157.485,254.791,154.819,253.678,152.923z"
			/>
		<path fill="#272829" d="M143.732,20.282c-68.578,0-124.37,55.793-124.37,124.369c0,68.578,55.792,124.371,124.37,124.371
			s124.371-55.793,124.371-124.371C268.104,76.075,212.311,20.282,143.732,20.282z M252.115,167.458
			c-0.035,0.029-0.061,0.068-0.094,0.1c0.02,0.049,0.029,0.102,0.051,0.146c1.094,2.426,0.348,5.666-1.635,7.445
			c0.74,2.553-0.33,5.689-2.531,7.172c-0.039,0.025-0.07,0.061-0.107,0.088c0.014,0.049,0.016,0.102,0.029,0.15
			c0.746,2.555-0.443,5.656-2.654,7.145c0.377,2.633-1.119,5.59-3.506,6.752c-0.041,0.02-0.078,0.049-0.117,0.07
			c0.006,0.051,0,0.104,0.008,0.152c0.383,2.635-1.227,5.541-3.623,6.705c0.008,2.66-1.885,5.383-4.412,6.199
			c-0.043,0.014-0.082,0.039-0.125,0.055c-0.002,0.051-0.014,0.102-0.014,0.15c0.014,2.662-1.986,5.318-4.521,6.137
			c-0.361,2.635-2.615,5.066-5.23,5.525c-0.045,0.008-0.088,0.027-0.133,0.037c-0.008,0.049-0.027,0.098-0.033,0.146
			c-0.357,2.637-2.707,4.986-5.332,5.445c-0.723,2.561-3.293,4.656-5.949,4.748c-0.045,0.002-0.092,0.014-0.137,0.018
			c-0.014,0.045-0.039,0.09-0.053,0.137c-0.723,2.566-3.354,4.576-6.041,4.662c-1.068,2.412-3.873,4.145-6.549,3.863
			c-0.045-0.004-0.094,0.002-0.139,0c-0.021,0.043-0.053,0.084-0.07,0.127c-0.973,2.215-3.506,3.82-6.023,3.822
			c-0.203,0-0.398-0.033-0.596-0.053c-1.135,1.83-3.391,3.088-5.654,3.088c-0.477,0-0.941-0.055-1.381-0.166
			c-0.045-0.01-0.092-0.014-0.137-0.023c-0.027,0.041-0.062,0.078-0.088,0.119c-1.111,1.797-3.379,3.004-5.645,3.004
			c-0.498,0-0.973-0.076-1.432-0.189c-1.184,1.422-3.152,2.33-5.146,2.33c-0.795,0-1.545-0.141-2.23-0.418
			c-0.041-0.018-0.094-0.023-0.137-0.039c-0.031,0.035-0.068,0.066-0.098,0.102c-1.154,1.389-3.104,2.252-5.088,2.252
			c-0.818,0-1.605-0.156-2.312-0.441c-1.145,1.035-2.779,1.648-4.471,1.65c-1.135,0-2.205-0.273-3.1-0.791
			c-0.041-0.023-0.088-0.039-0.131-0.062c-0.035,0.031-0.076,0.059-0.111,0.09c-1.111,1.012-2.705,1.592-4.373,1.592
			c-1.168,0-2.285-0.307-3.211-0.84c-1.022,0.695-2.297,1.092-3.661,1.092c-1.491,0-2.895-0.455-3.951-1.281
			c-0.036-0.029-0.083-0.049-0.12-0.076c-0.039,0.025-0.085,0.043-0.122,0.068c-0.98,0.668-2.244,1.037-3.558,1.037
			c-1.518,0-2.955-0.5-4.042-1.348c-0.832,0.414-1.788,0.643-2.803,0.643c-1.818,0-3.584-0.705-4.725-1.889
			c-0.033-0.033-0.072-0.064-0.106-0.098c-0.043,0.02-0.091,0.035-0.133,0.055c-0.794,0.393-1.724,0.6-2.689,0.6
			c-1.841,0-3.645-0.75-4.818-1.967c-0.592,0.195-1.217,0.318-1.884,0.318c-2.119,0-4.228-1.02-5.371-2.598
			c-0.028-0.037-0.064-0.072-0.093-0.109c-0.045,0.014-0.095,0.018-0.139,0.033c-0.571,0.189-1.187,0.285-1.827,0.285
			c-2.119,0-4.229-1.064-5.402-2.67c-0.337,0.061-0.682,0.102-1.036,0.102c-2.386,0.002-4.789-1.389-5.846-3.379
			c-0.022-0.043-0.057-0.08-0.08-0.123c-0.045,0.008-0.095,0.004-0.139,0.012c-0.322,0.059-0.658,0.09-0.997,0.09
			c-2.378,0-4.752-1.441-5.83-3.467c-2.692,0.117-5.462-1.721-6.359-4.193c-0.018-0.049-0.048-0.094-0.066-0.143l-0.349,0.006
			c-2.612,0-5.188-1.863-6.072-4.299c-2.651-0.264-5.167-2.434-5.718-5.037c-0.01-0.047-0.032-0.094-0.044-0.141
			c-0.045-0.006-0.09-0.021-0.135-0.027c-2.645-0.264-5.072-2.523-5.626-5.123c-2.589-0.631-4.78-3.131-4.964-5.785
			c-0.003-0.049-0.019-0.1-0.023-0.15c-0.044-0.012-0.086-0.033-0.13-0.043c-2.58-0.629-4.67-3.203-4.858-5.857
			c-2.475-0.982-4.297-3.764-4.109-6.418c0.003-0.049-0.005-0.102-0.003-0.152c-0.042-0.018-0.081-0.045-0.123-0.062
			c-2.467-0.98-4.177-3.82-3.994-6.475c-2.315-1.318-3.732-4.326-3.178-6.928c0.011-0.049,0.01-0.102,0.019-0.15
			c-0.039-0.023-0.074-0.057-0.113-0.08c-2.306-1.316-3.604-4.365-3.055-6.967c-2.109-1.627-3.094-4.803-2.182-7.303
			c0.017-0.047,0.023-0.1,0.039-0.148c-0.035-0.029-0.064-0.066-0.101-0.094c-2.1-1.623-2.961-4.822-2.056-7.324
			c-1.862-1.904-2.396-5.186-1.145-7.535c0.023-0.045,0.037-0.096,0.06-0.143c-0.03-0.033-0.055-0.074-0.087-0.107
			c-1.853-1.9-2.261-5.188-1.018-7.537c-1.578-2.146-1.649-5.469-0.083-7.621c0.029-0.041,0.051-0.09,0.079-0.133
			c-0.025-0.037-0.044-0.08-0.071-0.117c-1.571-2.141-1.518-5.453,0.041-7.607c-1.264-2.344-0.872-5.643,0.978-7.555
			c0.036-0.037,0.063-0.084,0.099-0.123c-0.021-0.041-0.033-0.088-0.055-0.127c-1.258-2.338-0.744-5.609,1.099-7.525
			c-0.925-2.498-0.078-5.709,2.021-7.346c0.041-0.031,0.075-0.074,0.115-0.107c-0.016-0.045-0.021-0.094-0.037-0.137
			c-0.921-2.49,0.043-5.658,2.135-7.301c-0.567-2.602,0.719-5.664,3.023-6.992c0.045-0.025,0.084-0.062,0.129-0.09
			c-0.009-0.045-0.008-0.094-0.018-0.141c-0.566-2.592,0.83-5.596,3.13-6.928c-0.2-2.656,1.499-5.51,3.967-6.504
			c0.048-0.02,0.092-0.051,0.14-0.072c-0.002-0.047,0.006-0.096,0.002-0.143c-0.198-2.648,1.603-5.428,4.064-6.43
			c0.173-2.656,2.253-5.244,4.834-5.885c0.05-0.014,0.098-0.037,0.148-0.053c0.004-0.047,0.019-0.094,0.021-0.141
			c0.172-2.648,2.342-5.152,4.92-5.799c0.541-2.607,2.961-4.881,5.605-5.156c0.051-0.004,0.102-0.023,0.152-0.029
			c0.012-0.047,0.033-0.094,0.043-0.141c0.538-2.598,3.035-4.773,5.678-5.059c0.876-2.451,3.455-4.326,6.078-4.326l0.343,0.006
			c0.019-0.049,0.049-0.094,0.066-0.145c0.888-2.475,3.649-4.301,6.323-4.219c1.073-2.039,3.452-3.492,5.841-3.492
			c0.33,0,0.657,0.029,0.972,0.084c0.05,0.01,0.104,0.006,0.155,0.014c0.023-0.043,0.058-0.082,0.08-0.125
			c1.054-2.004,3.462-3.404,5.856-3.404c0.341,0,0.673,0.039,0.998,0.096c1.174-1.619,3.287-2.691,5.415-2.691
			c0.63,0,1.235,0.094,1.8,0.277c0.049,0.016,0.104,0.021,0.152,0.037c0.03-0.041,0.067-0.076,0.097-0.115
			c1.144-1.592,3.258-2.619,5.387-2.619c0.652,0,1.264,0.119,1.844,0.307c1.176-1.229,2.984-1.984,4.834-1.984
			c0.955,0,1.876,0.203,2.664,0.588c0.046,0.023,0.098,0.039,0.145,0.061c0.036-0.037,0.078-0.068,0.113-0.105
			c1.144-1.195,2.918-1.908,4.747-1.908c0.999,0,1.941,0.223,2.765,0.625c1.091-0.854,2.534-1.357,4.06-1.357
			c1.302,0,2.556,0.361,3.53,1.02c0.041,0.029,0.091,0.047,0.133,0.074c0.04-0.029,0.09-0.051,0.128-0.082
			c1.062-0.838,2.474-1.299,3.976-1.299c1.349,0,2.611,0.391,3.627,1.072c0.93-0.539,2.053-0.848,3.227-0.848
			c1.658,0,3.244,0.572,4.352,1.572c0.037,0.033,0.08,0.062,0.117,0.096c0.047-0.025,0.1-0.043,0.143-0.07
			c0.9-0.525,1.98-0.803,3.127-0.803c1.678,0,3.301,0.605,4.441,1.625c0.711-0.287,1.504-0.447,2.328-0.447
			c1.973,0,3.914,0.855,5.066,2.232c0.031,0.035,0.07,0.068,0.102,0.104c0.049-0.018,0.105-0.023,0.154-0.043
			c0.691-0.283,1.449-0.428,2.254-0.428c1.982,0,3.943,0.898,5.127,2.305c0.463-0.115,0.941-0.191,1.443-0.191
			c2.256,0,4.518,1.197,5.629,2.98c0.027,0.041,0.062,0.08,0.092,0.121c0.049-0.01,0.104-0.016,0.152-0.027
			c0.447-0.115,0.922-0.172,1.406-0.172c2.254,0,4.504,1.246,5.641,3.062c0.201-0.021,0.398-0.055,0.604-0.055
			c2.508,0,5.037,1.598,6.014,3.797c0.02,0.043,0.051,0.084,0.072,0.129c0.051-0.006,0.105,0.002,0.156-0.004
			c2.672-0.285,5.494,1.436,6.568,3.846c2.684,0.07,5.309,2.072,6.039,4.625c0.014,0.047,0.039,0.09,0.053,0.137
			c0.053,0.002,0.104,0.018,0.156,0.018c2.656,0.08,5.238,2.168,5.971,4.727c2.619,0.457,4.967,2.791,5.336,5.42
			c0.006,0.047,0.023,0.094,0.031,0.141c0.053,0.01,0.102,0.031,0.152,0.041c2.621,0.447,4.887,2.875,5.256,5.51
			c2.529,0.816,4.531,3.455,4.529,6.109c0,0.047,0.012,0.096,0.012,0.143c0.051,0.018,0.096,0.045,0.146,0.061
			c2.531,0.811,4.438,3.529,4.438,6.191c2.391,1.16,4.004,4.053,3.633,6.682c-0.006,0.047-0.002,0.096-0.006,0.143
			c0.045,0.023,0.088,0.059,0.135,0.08c2.396,1.154,3.906,4.113,3.533,6.75c2.205,1.48,3.402,4.568,2.668,7.119
			c-0.012,0.043-0.014,0.092-0.025,0.137c0.041,0.031,0.078,0.07,0.123,0.1c2.211,1.477,3.295,4.617,2.557,7.178
			c1.98,1.773,2.734,4.998,1.654,7.422c-0.02,0.043-0.029,0.09-0.047,0.133c0.039,0.037,0.07,0.082,0.107,0.115
			c1.986,1.771,2.621,5.033,1.535,7.465c1.713,2.031,2.012,5.33,0.604,7.58c-0.023,0.039-0.039,0.084-0.062,0.123
			c0.031,0.041,0.057,0.088,0.09,0.127c1.721,2.031,1.895,5.35,0.48,7.605c1.414,2.252,1.25,5.561-0.457,7.592
			c-0.029,0.035-0.051,0.078-0.08,0.113c0.027,0.045,0.045,0.096,0.072,0.139c1.422,2.25,1.133,5.561-0.584,7.6
			C254.711,162.429,254.09,165.683,252.115,167.458z"/>
		<path fill="#272829" d="M250.227,174.378c1.535-1.586,2.088-4.199,1.25-6.232C250.162,169.821,249.641,172.366,250.227,174.378z"
			/>
		<path fill="#272829" d="M237.945,202.585c1.912-1.1,3.162-3.459,2.92-5.645C239.139,198.19,237.938,200.491,237.945,202.585z"/>
		<path fill="#272829" d="M240.822,196.142c-0.088-2.574,1.418-5.477,3.6-6.771c-0.518-2.492,0.627-5.576,2.602-7.24
			c-0.445-2.537,0.643-5.621,2.621-7.205c-0.859-2.396-0.154-5.611,1.57-7.537c-0.793-2.447-0.146-5.652,1.594-7.498
			c-1.186-2.252-0.936-5.533,0.506-7.68c-1.127-2.316-0.932-5.58,0.535-7.648c-1.488-2.066-1.697-5.348-0.568-7.674
			c-1.439-2.137-1.699-5.396-0.535-7.648c-1.76-1.84-2.424-5.061-1.633-7.521c-1.721-1.916-2.432-5.107-1.592-7.5
			c-2-1.576-3.105-4.676-2.664-7.223c-1.971-1.656-3.119-4.717-2.621-7.203c-2.199-1.281-3.727-4.195-3.643-6.777
			c-2.184-1.369-3.748-4.242-3.598-6.773c-2.355-0.965-4.273-3.637-4.551-6.205c-2.354-1.051-4.301-3.678-4.506-6.207
			c-2.467-0.627-4.736-3.004-5.369-5.508c-2.477-0.715-4.773-3.047-5.328-5.521c-2.527-0.277-5.105-2.316-6.082-4.707
			c-2.551-0.361-5.15-2.352-6.043-4.729c-2.58,0.076-5.387-1.584-6.68-3.814c-2.594-0.008-5.441-1.635-6.643-3.84
			c-0.332,0.057-0.676,0.092-1.031,0.092c-2.289,0-4.744-1.203-6.107-2.92c-0.297,0.041-0.6,0.068-0.914,0.068
			c-2.412,0-4.891-1.189-6.207-2.965c-0.613,0.197-1.281,0.301-1.994,0.301c-2.045,0-4.115-0.812-5.471-2.102
			c-0.6,0.172-1.25,0.26-1.941,0.26c-2.107,0-4.207-0.822-5.51-2.143c-0.879,0.424-1.928,0.65-3.045,0.65
			c-1.707,0-3.383-0.516-4.613-1.402c-0.893,0.393-1.938,0.615-3.029,0.615c-1.74,0-3.406-0.527-4.596-1.439
			c-1.108,0.742-2.563,1.152-4.115,1.152c-1.313,0-2.547-0.309-3.567-0.848c-1.142,0.713-2.594,1.135-4.12,1.135
			c-1.31,0-2.563-0.311-3.549-0.867c-1.262,1.123-3.16,1.793-5.105,1.793c-0.875,0-1.707-0.141-2.448-0.404
			c-1.309,1.094-3.197,1.758-5.094,1.758c-0.891,0-1.745-0.156-2.481-0.445c-1.322,1.559-3.627,2.564-5.907,2.564
			c-0.481,0-0.935-0.062-1.372-0.152c-1.376,1.533-3.639,2.539-5.852,2.539c-0.515,0-1.008-0.061-1.471-0.172
			c-1.262,1.99-3.964,3.43-6.472,3.43c-0.141,0-0.271-0.025-0.41-0.035c-1.431,2.123-4.358,3.611-6.912,3.369
			c-1.048,2.316-3.75,4.131-6.342,4.32c-1.131,2.324-3.838,4.188-6.378,4.299c-0.714,2.434-3.158,4.611-5.677,5.16
			c-0.796,2.459-3.217,4.682-5.718,5.146c-0.37,2.508-2.487,5.002-4.903,5.896c-0.445,2.547-2.533,5.086-4.946,5.893
			c-0.017,2.537-1.766,5.303-4.034,6.523c-0.087,2.584-1.801,5.391-4.078,6.527c0.334,2.512-1.013,5.492-3.088,7.016
			c0.275,2.57-1.032,5.59-3.131,7.031c0.683,2.441-0.236,5.582-2.08,7.381c0.63,2.508-0.244,5.678-2.121,7.398
			c1.014,2.324,0.54,5.559-1.034,7.596c0.973,2.395,0.549,5.656-1.07,7.621c1.328,2.16,1.309,5.432,0.032,7.666
			c1.298,2.236,1.332,5.527,0.002,7.697c1.615,1.953,2.052,5.195,1.099,7.588c1.597,2.033,2.088,5.287,1.073,7.621
			c1.872,1.711,2.755,4.859,2.144,7.361c1.863,1.791,2.804,4.943,2.124,7.396c2.092,1.434,3.404,4.43,3.146,6.994
			c2.094,1.514,3.464,4.504,3.134,7.025c2.271,1.131,3.986,3.914,4.089,6.488c2.284,1.209,4.056,3.979,4.08,6.521
			c2.406,0.803,4.494,3.322,4.952,5.857c2.431,0.877,4.57,3.375,4.949,5.891c2.495,0.459,4.914,2.664,5.72,5.111
			c2.527,0.531,4.992,2.703,5.718,5.141c2.536,0.109,5.24,1.957,6.378,4.27c2.598,0.176,5.32,1.98,6.378,4.297
			c2.553-0.254,5.476,1.229,6.911,3.34c0.152-0.012,0.297-0.041,0.453-0.041c2.497,0,5.192,1.428,6.457,3.402
			c0.467-0.113,0.965-0.176,1.484-0.176c2.205,0,4.462,0.996,5.836,2.518c0.452-0.098,0.921-0.164,1.419-0.164
			c2.266,0,4.561,0.994,5.882,2.535c0.741-0.293,1.602-0.451,2.499-0.451c1.887,0,3.769,0.658,5.073,1.742
			c0.753-0.273,1.6-0.422,2.493-0.422c1.928,0,3.813,0.662,5.07,1.766c0.992-0.561,2.252-0.875,3.57-0.875
			c1.517,0,2.962,0.416,4.098,1.121c1.03-0.553,2.279-0.869,3.609-0.869c1.535,0,2.974,0.404,4.076,1.131
			c1.193-0.922,2.867-1.453,4.617-1.453c1.1,0,2.119,0.215,3.006,0.605c1.238-0.9,2.928-1.426,4.65-1.426
			c1.098,0,2.131,0.221,2.998,0.633c1.305-1.334,3.41-2.162,5.529-2.162c0.684,0,1.328,0.086,1.924,0.256
			c1.354-1.307,3.436-2.131,5.496-2.131c0.695,0,1.348,0.102,1.947,0.291c1.299-1.762,3.838-2.988,6.221-2.988
			c0.309,0,0.607,0.027,0.9,0.068c1.363-1.734,3.826-2.951,6.127-2.951c0.338,0,0.668,0.033,0.984,0.086
			c1.197-2.219,4.037-3.863,6.645-3.867c1.285-2.234,4.086-3.902,6.645-3.842c0.885-2.387,3.486-4.393,6.043-4.756
			c0.965-2.391,3.523-4.432,6.043-4.727c0.543-2.486,2.84-4.834,5.322-5.553c0.623-2.5,2.871-4.879,5.326-5.521
			c0.191-2.537,2.141-5.186,4.498-6.24c0.27-2.561,2.166-5.227,4.506-6.207C237.072,200.409,238.635,197.515,240.822,196.142z"/>
		<path fill="#272829" d="M241.508,195.728c1.93-1.029,3.17-3.375,3.012-5.564C242.795,191.333,241.574,193.606,241.508,195.728z"/>
		<path fill="#272829" d="M33.482,145.704c-1.234,1.82-1.227,4.49-0.048,6.355C34.419,150.212,34.428,147.614,33.482,145.704z"/>
		<path fill="#272829" d="M245.074,188.911c1.738-1.357,2.648-3.869,2.104-5.996C245.643,184.392,244.773,186.839,245.074,188.911z"
			/>
		<path fill="#272829" d="M50.719,203.989c-0.081,2.195,1.341,4.455,3.328,5.41C53.9,207.313,52.532,205.106,50.719,203.989z"/>
		<path fill="#272829" d="M46.573,197.499c0.005,2.195,1.414,4.443,3.415,5.326C49.765,200.716,48.38,198.538,46.573,197.499z"/>
		<path fill="#272829" d="M54.854,210.505c0.31,2.176,2.019,4.207,4.123,4.803C58.464,213.249,56.789,211.284,54.854,210.505z"/>
		<path fill="#272829" d="M59.862,216.356c0.226,2.186,1.949,4.225,4.05,4.896C63.476,219.204,61.813,217.212,59.862,216.356z"/>
		<path fill="#272829" d="M70.64,227.333c0.528,2.133,2.517,3.91,4.689,4.281C74.612,229.649,72.689,227.907,70.64,227.333z"/>
		<path fill="#272829" d="M64.865,222.235c0.608,2.111,2.584,3.885,4.753,4.182C68.823,224.448,66.89,222.737,64.865,222.235z"/>
		<path fill="#272829" d="M43.385,190.468c-0.386,2.164,0.709,4.6,2.544,5.822C46.074,194.202,45.025,191.827,43.385,190.468z"/>
		<path fill="#272829" d="M34.683,161.04c-0.969,1.973-0.589,4.617,0.839,6.301C36.238,165.372,35.885,162.8,34.683,161.04z"/>
		<path fill="#272829" d="M33.533,153.427c-0.888,2.008-0.513,4.633,0.955,6.254C35.142,157.663,34.761,155.11,33.533,153.427z"/>
		<path fill="#272829" d="M40.184,183.464c-0.302,2.176,0.781,4.598,2.641,5.752C42.896,187.095,41.827,184.745,40.184,183.464z"/>
		<path fill="#272829" d="M39.712,182.179c0.437-2.047-0.271-4.547-1.707-6.121C37.32,178.147,38.065,180.712,39.712,182.179z"/>
		<path fill="#272829" d="M89.257,240.974c1.027,1.637,3.032,2.773,5.035,2.773c0.237,0,0.468-0.029,0.696-0.062
			C93.69,242.03,91.362,240.896,89.257,240.974z"/>
		<path fill="#272829" d="M117.882,252.267c1.04,0.928,2.525,1.488,4.042,1.486c0.792,0,1.549-0.16,2.211-0.455
			c-1.16-0.842-2.73-1.35-4.316-1.35C119.124,251.948,118.474,252.073,117.882,252.267z"/>
		<path fill="#272829" d="M76.409,232.456c0.894,1.977,3.11,3.494,5.278,3.494h0.019C80.647,234.106,78.49,232.671,76.409,232.456z"
			/>
		<path fill="#272829" d="M110.532,249.931c1.036,1.322,2.852,2.174,4.688,2.174c0.471,0,0.913-0.074,1.34-0.184
			c-1.21-1.238-3.206-2.057-5.123-2.057C111.125,249.864,110.824,249.89,110.532,249.931z"/>
		<path fill="#272829" d="M140.804,255.005c0.917,0.664,2.1,1.037,3.369,1.037c1.09,0,2.114-0.277,2.968-0.773
			c-0.95-0.547-2.135-0.857-3.408-0.857C142.67,254.411,141.661,254.618,140.804,255.005z"/>
		<path fill="#272829" d="M133.094,254.8c0.928,0.625,2.096,0.99,3.328,0.99c1.106,0,2.159-0.299,3.001-0.826
			c-0.971-0.514-2.159-0.805-3.397-0.805C134.951,254.159,133.935,254.392,133.094,254.8z"/>
		<path fill="#272829" d="M125.493,253.534c1.013,0.973,2.521,1.553,4.083,1.551c0.779,0,1.521-0.143,2.181-0.414
			c-1.126-0.881-2.726-1.402-4.372-1.402C126.714,253.269,126.077,253.364,125.493,253.534z"/>
		<path fill="#272829" d="M103.158,247.608c1.075,1.281,2.853,2.107,4.634,2.107c0.5,0,0.975-0.076,1.425-0.205
			c-1.258-1.205-3.195-2.002-5.034-2.002C103.826,247.509,103.486,247.55,103.158,247.608z"/>
		<path fill="#272829" d="M148.504,255.224c0.752,0.365,1.629,0.566,2.541,0.566c1.426,0,2.773-0.479,3.75-1.299
			c-0.717-0.256-1.527-0.402-2.369-0.402C150.949,254.089,149.555,254.511,148.504,255.224z"/>
		<path fill="#272829" d="M82.847,236.718c0.817,2.006,3.013,3.5,5.231,3.57C87.104,238.474,84.944,237.011,82.847,236.718z"/>
		<path fill="#272829" d="M96.241,244.284c-0.006,0-0.012,0.002-0.019,0.002c0.978,1.689,3.055,2.863,5.131,2.863
			c0.192,0,0.382-0.014,0.569-0.035C100.721,245.46,98.407,244.284,96.241,244.284z"/>
	</g>
	<path fill="#272829" d="M143.732,18.155c-69.75,0-126.496,56.746-126.496,126.496s56.746,126.494,126.496,126.494
		s126.496-56.744,126.496-126.494S213.482,18.155,143.732,18.155z M143.732,269.729c-68.969,0-125.079-56.109-125.079-125.078
		S74.764,19.573,143.732,19.573s125.08,56.109,125.08,125.078S212.701,269.729,143.732,269.729z"/>
	<path fill="#272829" d="M281.049,151.397l4.416-6.746l-4.416-6.746l3.734-7.146l-5.059-6.279l3.018-7.479l-5.648-5.754l2.27-7.738
		l-6.186-5.172l1.498-7.924l-6.662-4.541l0.717-8.033l-7.076-3.865l-0.074-8.064l-7.422-3.154l-0.865-8.018l-7.693-2.412
		l-1.646-7.893l-7.895-1.646l-2.412-7.695l-8.016-0.865l-3.156-7.42l-8.062-0.074l-3.867-7.076l-8.031,0.715l-4.541-6.662
		l-7.924,1.5l-5.174-6.186l-7.736,2.27l-5.756-5.648l-7.477,3.016l-6.281-5.057l-7.146,3.734l-6.746-4.418l-6.745,4.418
		l-7.146-3.734l-6.28,5.057l-7.479-3.016l-5.754,5.648l-7.738-2.27l-5.173,6.186l-7.923-1.5l-4.542,6.662l-8.031-0.715l-3.867,7.076
		l-8.063,0.074l-3.154,7.42l-8.018,0.865l-2.412,7.695l-7.894,1.646l-1.646,7.893l-7.694,2.412l-0.864,8.018l-7.421,3.154
		l-0.075,8.064l-7.075,3.865l0.716,8.033l-6.663,4.541l1.5,7.924l-6.186,5.172l2.269,7.738l-5.648,5.754l3.017,7.479l-5.058,6.279
		l3.735,7.146L2,144.651l4.418,6.746l-3.735,7.146l5.058,6.281l-3.017,7.477l5.648,5.756l-2.269,7.736l6.186,5.174l-1.5,7.922
		l6.663,4.543l-0.716,8.031l7.075,3.867l0.075,8.062l7.421,3.154l0.864,8.018l7.694,2.412l1.646,7.895l7.894,1.646l2.412,7.693
		l8.018,0.865l3.154,7.42l8.063,0.076l3.867,7.076l8.031-0.717l4.542,6.662l7.923-1.5l5.173,6.186l7.738-2.268l5.754,5.648
		l7.479-3.018l6.28,5.059l7.146-3.736l6.745,4.418l6.746-4.418l7.146,3.736l6.281-5.059l7.477,3.018l5.756-5.648l7.736,2.268
		l5.174-6.186l7.924,1.5l4.541-6.662l8.031,0.717l3.867-7.076l8.062-0.076l3.156-7.42l8.016-0.865l2.412-7.693l7.895-1.646
		l1.646-7.895l7.693-2.412l0.865-8.018l7.422-3.154l0.074-8.062l7.076-3.867l-0.717-8.031l6.662-4.543l-1.498-7.922l6.186-5.174
		l-2.27-7.736l5.648-5.756l-3.018-7.477l5.059-6.281L281.049,151.397z M143.732,273.272c-70.922,0-128.622-57.699-128.622-128.621
		s57.7-128.623,128.622-128.623c70.924,0,128.623,57.701,128.623,128.623S214.656,273.272,143.732,273.272z"/>
</g>
<g>
	<path fill="#F5F5F5" d="M92.006,216.97c0.059-0.112,0.092-0.233,0.101-0.364s-0.008-0.261-0.05-0.391
		c-0.042-0.129-0.105-0.253-0.189-0.371c-0.085-0.118-0.188-0.222-0.31-0.31c-0.11-0.079-0.222-0.142-0.334-0.188
		c-0.113-0.046-0.222-0.07-0.328-0.074c-0.106-0.003-0.207,0.018-0.303,0.063c-0.097,0.045-0.183,0.12-0.258,0.225
		c-0.094,0.131-0.141,0.255-0.14,0.373c0.001,0.117,0.028,0.233,0.082,0.346c0.053,0.113,0.123,0.224,0.209,0.33
		c0.086,0.106,0.168,0.214,0.245,0.322l0.91,1.264c0.124,0.178,0.222,0.369,0.294,0.575c0.072,0.207,0.108,0.421,0.11,0.643
		s-0.035,0.449-0.11,0.682c-0.075,0.232-0.197,0.467-0.367,0.702c-0.23,0.319-0.499,0.569-0.807,0.749s-0.637,0.287-0.984,0.323
		c-0.348,0.036-0.708,0-1.08-0.108c-0.372-0.109-0.738-0.293-1.098-0.553c-0.253-0.183-0.472-0.383-0.656-0.602
		c-0.185-0.219-0.331-0.449-0.439-0.69c-0.109-0.241-0.179-0.487-0.21-0.737s-0.019-0.498,0.039-0.743l-0.449-0.323l0.945-1.312
		l1.578,1.136l-0.194,0.271c-0.094,0.131-0.16,0.267-0.197,0.407c-0.038,0.141-0.043,0.282-0.018,0.424
		c0.025,0.143,0.086,0.282,0.182,0.419c0.095,0.138,0.229,0.268,0.4,0.391c0.262,0.188,0.504,0.271,0.728,0.25
		c0.223-0.022,0.413-0.142,0.567-0.356c0.08-0.11,0.122-0.22,0.127-0.328c0.005-0.109-0.011-0.216-0.05-0.321
		s-0.092-0.209-0.16-0.311s-0.137-0.199-0.206-0.294l-0.766-1.041c-0.147-0.194-0.271-0.407-0.372-0.638
		c-0.1-0.231-0.162-0.475-0.184-0.729s0.002-0.516,0.075-0.783c0.072-0.269,0.205-0.538,0.399-0.808
		c0.226-0.314,0.485-0.552,0.779-0.714c0.293-0.162,0.604-0.252,0.935-0.27s0.671,0.033,1.021,0.153
		c0.351,0.12,0.697,0.304,1.04,0.551c0.271,0.194,0.498,0.405,0.682,0.633c0.185,0.229,0.33,0.46,0.437,0.695
		c0.106,0.235,0.174,0.466,0.203,0.692c0.029,0.226,0.024,0.436-0.013,0.629l0.436,0.314l-0.948,1.316l-1.578-1.137L92.006,216.97z"
		/>
	<path fill="#F5F5F5" d="M99.018,218.813l3.309,1.786c0.369,0.199,0.676,0.439,0.923,0.721c0.247,0.282,0.429,0.581,0.548,0.896
		c0.118,0.316,0.171,0.637,0.16,0.96s-0.092,0.623-0.242,0.9c-0.18,0.334-0.399,0.62-0.655,0.857
		c-0.257,0.238-0.547,0.408-0.871,0.51c-0.323,0.103-0.678,0.13-1.063,0.082c-0.385-0.047-0.795-0.188-1.23-0.423l-0.997-0.538
		l-0.737,1.366l0.657,0.354l-0.699,1.295l-2.968-1.603l0.699-1.295l0.742,0.4l2.467-4.57l-0.742-0.4L99.018,218.813z
		 M100.628,221.361l-1.039,1.923l0.647,0.35c0.359,0.194,0.685,0.272,0.978,0.235c0.292-0.037,0.527-0.22,0.705-0.548
		c0.165-0.306,0.195-0.599,0.09-0.879s-0.35-0.524-0.734-0.732L100.628,221.361z"/>
	<path fill="#F5F5F5" d="M109.286,223.976l4.037,1.503c0.393,0.146,0.721,0.335,0.986,0.567s0.467,0.486,0.605,0.762
		c0.138,0.274,0.215,0.563,0.231,0.865s-0.029,0.594-0.134,0.875c-0.096,0.259-0.208,0.475-0.336,0.649
		c-0.128,0.174-0.272,0.316-0.435,0.428c-0.162,0.112-0.342,0.197-0.539,0.255c-0.198,0.059-0.413,0.098-0.646,0.118
		c0.139,0.151,0.24,0.341,0.304,0.569c0.064,0.228,0.077,0.497,0.038,0.808l-0.112,1.087l0.629,0.234l-0.542,1.488l-2.215-0.824
		l0.373-1.925c0.05-0.226,0.073-0.429,0.069-0.607c-0.004-0.18-0.04-0.338-0.107-0.476c-0.067-0.138-0.167-0.258-0.298-0.36
		c-0.132-0.103-0.3-0.192-0.505-0.269l-0.649-0.241l-0.619,1.661l0.7,0.261l-0.513,1.379l-3.161-1.177l0.513-1.379l0.791,0.294
		l1.812-4.868l-0.79-0.294L109.286,223.976z M111.232,226.276l-0.688,1.847l1.002,0.373c0.191,0.071,0.37,0.118,0.536,0.14
		c0.166,0.021,0.317,0.015,0.454-0.021s0.256-0.099,0.358-0.19c0.101-0.092,0.181-0.217,0.24-0.375
		c0.11-0.295,0.09-0.564-0.061-0.808c-0.15-0.243-0.43-0.44-0.839-0.594L111.232,226.276z"/>
	<path fill="#F5F5F5" d="M120.892,227.834l3.39,0.813l-0.343,1.431l-0.836-0.2l-1.213,5.056l0.836,0.2l-0.343,1.432l-3.39-0.813
		l0.343-1.431l0.82,0.196l1.213-5.056l-0.82-0.197L120.892,227.834z"/>
	<path fill="#F5F5F5" d="M134.187,230.175l3.075,0.34l-0.162,1.468l-0.657-0.072l-0.731,6.625l-1.772-0.195l-2.792-5.604
		l-0.416,3.769l0.678,0.075l-0.162,1.463l-3.069-0.339l0.161-1.463l0.667,0.074l0.569-5.163l-0.657-0.072l0.162-1.468l2.445,0.27
		l2.762,5.671l0.423-3.834l-0.688-0.075L134.187,230.175z"/>
	<path fill="#F5F5F5" d="M148.291,238.56l-0.053-1.396c-0.207,0.398-0.414,0.692-0.617,0.884c-0.205,0.19-0.438,0.346-0.701,0.467
		c-0.263,0.121-0.617,0.188-1.064,0.202c-0.222,0.005-0.444-0.013-0.669-0.053c-0.223-0.04-0.44-0.1-0.651-0.18
		s-0.418-0.178-0.621-0.294c-0.204-0.115-0.389-0.251-0.556-0.405c-0.413-0.386-0.739-0.839-0.979-1.358
		c-0.24-0.519-0.372-1.09-0.396-1.713c-0.015-0.383,0.018-0.755,0.097-1.116c0.08-0.361,0.197-0.701,0.354-1.019
		c0.156-0.317,0.348-0.608,0.577-0.874c0.228-0.265,0.484-0.494,0.77-0.688c0.285-0.193,0.593-0.347,0.926-0.46
		c0.333-0.112,0.683-0.176,1.052-0.19c0.422-0.016,0.791,0.026,1.106,0.128c0.316,0.101,0.658,0.298,1.029,0.592l1.201-0.046
		l0.068,1.814l-1.658,0.063c-0.174-0.248-0.336-0.427-0.484-0.535c-0.15-0.109-0.311-0.198-0.484-0.267
		c-0.173-0.069-0.411-0.098-0.716-0.086c-0.301,0.012-0.576,0.09-0.829,0.235c-0.252,0.146-0.468,0.338-0.647,0.576
		c-0.179,0.237-0.316,0.516-0.412,0.832c-0.095,0.317-0.137,0.641-0.125,0.97c0.013,0.326,0.073,0.634,0.18,0.923
		c0.108,0.29,0.265,0.549,0.47,0.775s0.442,0.397,0.708,0.514c0.266,0.115,0.547,0.167,0.844,0.155
		c0.379-0.014,0.707-0.138,0.98-0.37c0.274-0.232,0.467-0.543,0.579-0.931l-1.552,0.06l-0.056-1.471l3.768-0.144l0.164,4.342
		L148.291,238.56z"/>
	<path fill="#F5F5F5" d="M162.807,235.126l2-3.588c0.178-0.289,0.303-0.563,0.373-0.825s0.076-0.51,0.018-0.746
		c-0.025-0.101-0.072-0.195-0.139-0.284s-0.148-0.162-0.246-0.221s-0.209-0.097-0.334-0.115s-0.258-0.01-0.4,0.026
		c-0.17,0.042-0.311,0.106-0.424,0.192s-0.201,0.187-0.264,0.302c-0.061,0.114-0.098,0.24-0.111,0.377
		c-0.014,0.136-0.006,0.274,0.025,0.414l-1.566,0.395c-0.104-0.41-0.129-0.793-0.074-1.147c0.055-0.355,0.174-0.674,0.355-0.954
		c0.184-0.28,0.42-0.518,0.711-0.713c0.291-0.194,0.617-0.338,0.982-0.43c0.344-0.086,0.684-0.116,1.021-0.091
		c0.336,0.026,0.65,0.11,0.938,0.252c0.289,0.142,0.539,0.342,0.754,0.603c0.213,0.26,0.367,0.583,0.465,0.969
		c0.076,0.309,0.086,0.61,0.025,0.904s-0.17,0.588-0.324,0.882l-1.639,2.998l2.943-0.739l0.402,1.599l-5.152,1.296L162.807,235.126z
		"/>
	<path fill="#F5F5F5" d="M176.842,232.34c-0.533,0.208-1.025,0.287-1.475,0.235c-0.451-0.051-0.861-0.203-1.23-0.457
		c-0.371-0.254-0.701-0.594-0.992-1.02c-0.291-0.427-0.543-0.91-0.752-1.451c-0.209-0.533-0.354-1.057-0.434-1.568
		c-0.08-0.513-0.074-0.992,0.021-1.438c0.094-0.446,0.291-0.847,0.586-1.2c0.297-0.354,0.719-0.638,1.266-0.851
		c0.541-0.211,1.039-0.288,1.492-0.23c0.455,0.058,0.867,0.216,1.238,0.475c0.369,0.259,0.699,0.603,0.986,1.03
		c0.289,0.428,0.535,0.907,0.742,1.438c0.209,0.537,0.352,1.062,0.428,1.577s0.064,0.992-0.035,1.435
		c-0.098,0.442-0.297,0.838-0.594,1.188S177.377,232.132,176.842,232.34z M176.244,230.804c0.297-0.115,0.51-0.267,0.639-0.454
		c0.129-0.187,0.199-0.402,0.211-0.647c0.012-0.244-0.023-0.516-0.109-0.812c-0.086-0.298-0.193-0.615-0.324-0.952
		c-0.129-0.33-0.262-0.633-0.4-0.907c-0.139-0.275-0.295-0.5-0.469-0.677c-0.174-0.176-0.373-0.29-0.594-0.342
		c-0.223-0.052-0.48-0.021-0.773,0.094c-0.297,0.116-0.51,0.269-0.641,0.458c-0.131,0.188-0.201,0.407-0.211,0.655
		c-0.012,0.249,0.025,0.521,0.107,0.817c0.084,0.296,0.189,0.609,0.318,0.939c0.131,0.337,0.266,0.644,0.406,0.919
		c0.141,0.276,0.297,0.501,0.471,0.673c0.172,0.173,0.369,0.285,0.592,0.335C175.688,230.952,175.947,230.92,176.244,230.804z"/>
	<path fill="#F5F5F5" d="M184.295,227.326l0.754-0.398l-1.982-3.758l-0.758,1.244l-0.873-1.652l1.369-2.217l0.695-0.354l3.117,5.909
		l0.76-0.401l0.688,1.302l-3.084,1.627L184.295,227.326z"/>
	<path fill="#F5F5F5" d="M190.607,221.368l-0.158-5.386l1.484-1.008l0.199,5.37l1.422-0.966l-0.883-1.302l1.377-0.962l0.896,1.319
		l0.938-0.637l0.768,1.129l-0.938,0.637l0.422,0.622l0.857-0.583l0.826,1.218l-2.887,1.961l-0.828-1.217l0.641-0.435l-0.422-0.622
		l-2.941,1.997L190.607,221.368z"/>
</g>
<g>
	<path fill="#F5F5F5" d="M59.75,96.162l1.68-2.636c0.201-0.314,0.433-0.589,0.698-0.826c0.266-0.236,0.552-0.433,0.858-0.587
		c0.307-0.154,0.629-0.269,0.965-0.34c0.337-0.072,0.678-0.1,1.024-0.083c0.346,0.017,0.69,0.079,1.034,0.187
		c0.343,0.109,0.672,0.264,0.99,0.467c0.317,0.201,0.597,0.435,0.84,0.7c0.243,0.265,0.446,0.552,0.608,0.859
		c0.163,0.308,0.285,0.63,0.364,0.968c0.08,0.337,0.115,0.678,0.106,1.022c-0.01,0.345-0.065,0.687-0.167,1.026
		c-0.103,0.342-0.254,0.668-0.454,0.982l-1.681,2.636l-1.241-0.79l0.349-0.549l-4.379-2.791l-0.35,0.549L59.75,96.162z
		 M62.303,94.904l4.38,2.791l0.367-0.575c0.156-0.245,0.246-0.512,0.27-0.803c0.024-0.29-0.012-0.579-0.108-0.864
		c-0.096-0.286-0.247-0.562-0.455-0.826c-0.208-0.264-0.466-0.493-0.774-0.689c-0.305-0.193-0.619-0.33-0.945-0.406
		c-0.325-0.075-0.637-0.096-0.935-0.061s-0.573,0.127-0.823,0.271c-0.25,0.146-0.454,0.343-0.61,0.586L62.303,94.904z"/>
	<path fill="#F5F5F5" d="M65.12,88l2.672-3.379c0.26-0.328,0.542-0.584,0.844-0.765c0.302-0.18,0.606-0.294,0.91-0.341
		s0.602-0.031,0.894,0.047c0.293,0.077,0.557,0.209,0.792,0.396c0.216,0.171,0.388,0.344,0.514,0.52
		c0.126,0.175,0.218,0.357,0.274,0.545s0.082,0.385,0.077,0.592c-0.006,0.206-0.034,0.423-0.087,0.65
		c0.186-0.085,0.397-0.123,0.635-0.114c0.237,0.009,0.497,0.081,0.78,0.212l1,0.441l0.417-0.525l1.249,0.975l-1.465,1.854
		l-1.717-0.947c-0.199-0.117-0.385-0.2-0.557-0.252c-0.171-0.052-0.333-0.066-0.485-0.045s-0.297,0.079-0.435,0.174
		c-0.138,0.094-0.275,0.227-0.41,0.396l-0.43,0.545l1.391,1.099l0.463-0.586l1.153,0.913l-2.091,2.646l-1.154-0.914l0.522-0.66
		l-4.073-3.223l-0.523,0.662L65.12,88z M67.908,86.855l1.546,1.223l0.664-0.838c0.126-0.16,0.225-0.316,0.297-0.467
		c0.071-0.152,0.112-0.298,0.121-0.438c0.009-0.142-0.015-0.274-0.071-0.399c-0.057-0.125-0.151-0.238-0.283-0.344
		c-0.247-0.195-0.509-0.259-0.787-0.191c-0.278,0.069-0.552,0.274-0.823,0.616L67.908,86.855z"/>
	<path fill="#F5F5F5" d="M71.186,80.514l2.279-2.338l1.058,1.03l-0.521,0.535l2.42,2.356c0.221,0.216,0.432,0.373,0.634,0.474
		c0.203,0.099,0.396,0.152,0.582,0.157c0.186,0.005,0.36-0.032,0.525-0.111c0.165-0.08,0.318-0.191,0.461-0.338
		c0.146-0.152,0.262-0.309,0.345-0.471c0.082-0.161,0.12-0.332,0.113-0.512c-0.008-0.18-0.066-0.369-0.176-0.57
		c-0.111-0.199-0.284-0.414-0.521-0.644l-2.419-2.358l-0.604,0.619l-1.058-1.029l2.279-2.34l1.058,1.031l-0.454,0.466l2.27,2.211
		c0.411,0.399,0.718,0.814,0.922,1.243c0.204,0.43,0.316,0.854,0.336,1.275c0.02,0.422-0.048,0.828-0.204,1.219
		s-0.389,0.745-0.699,1.062c-0.308,0.316-0.652,0.555-1.033,0.719c-0.381,0.162-0.78,0.241-1.195,0.232
		c-0.416-0.006-0.836-0.102-1.261-0.287c-0.425-0.184-0.834-0.467-1.226-0.85l-2.339-2.279l-0.514,0.527L71.186,80.514z"/>
	<path fill="#F5F5F5" d="M78.58,73.166l2.88-2.418c0.321-0.269,0.658-0.467,1.011-0.592c0.353-0.125,0.698-0.184,1.035-0.178
		s0.655,0.074,0.95,0.205c0.296,0.131,0.546,0.316,0.749,0.558c0.243,0.29,0.429,0.599,0.555,0.925s0.178,0.658,0.153,0.997
		s-0.13,0.679-0.316,1.019c-0.187,0.342-0.469,0.671-0.847,0.988l-0.869,0.729l0.999,1.188l0.572-0.479l0.945,1.128l-2.584,2.167
		l-0.945-1.127l0.646-0.542l-3.339-3.979l-0.646,0.542L78.58,73.166z M81.542,72.608l1.405,1.675l0.563-0.473
		c0.312-0.263,0.506-0.537,0.579-0.823c0.074-0.285-0.009-0.571-0.249-0.856c-0.223-0.266-0.484-0.402-0.784-0.407
		c-0.299-0.007-0.617,0.132-0.951,0.411L81.542,72.608z"/>
	<path fill="#F5F5F5" d="M92.978,70.467l0.67-0.457l-0.961-0.762l-2.068,1.412l0.358,1.172l0.71-0.483l0.829,1.216l-2.551,1.74
		l-0.829-1.217l0.501-0.342l-1.927-6.761l1.78-1.214l5.552,4.289l0.488-0.334l0.829,1.217l-2.551,1.738L92.978,70.467z
		 M90.194,69.283l1.358-0.926l-2.176-1.721L90.194,69.283z"/>
	<path fill="#F5F5F5" d="M93.856,61.988l3.058-1.675l0.709,1.296l-0.755,0.413l2.495,4.556l1.555-0.852
		c0.041-0.022,0.074-0.056,0.101-0.102c0.026-0.045,0.044-0.094,0.053-0.147c0.009-0.055,0.011-0.108,0.006-0.163
		c-0.005-0.054-0.019-0.102-0.041-0.143l-0.523-0.957l1.526-0.836l1.437,2.625l-5.71,3.127l-0.707-1.292l0.741-0.405l-2.495-4.555
		l-0.74,0.404L93.856,61.988z"/>
	<path fill="#F5F5F5" d="M107.636,57.993c-0.296-0.185-0.542-0.302-0.737-0.35c-0.195-0.048-0.389-0.059-0.58-0.034
		c-0.192,0.025-0.381,0.078-0.57,0.156c-0.277,0.119-0.508,0.29-0.692,0.514c-0.185,0.225-0.318,0.48-0.402,0.766
		c-0.083,0.287-0.114,0.591-0.093,0.916c0.021,0.322,0.099,0.643,0.232,0.959c0.136,0.32,0.312,0.601,0.529,0.84
		c0.217,0.241,0.456,0.431,0.716,0.57c0.261,0.137,0.536,0.219,0.826,0.241s0.577-0.026,0.86-0.146
		c0.198-0.083,0.369-0.194,0.513-0.331s0.264-0.288,0.359-0.453c0.095-0.164,0.167-0.338,0.214-0.52
		c0.047-0.182,0.069-0.359,0.065-0.533l1.782-0.23c0.035,0.367,0.012,0.73-0.07,1.089c-0.081,0.36-0.217,0.698-0.411,1.017
		c-0.193,0.32-0.439,0.611-0.738,0.875c-0.298,0.262-0.649,0.479-1.051,0.65c-0.34,0.144-0.684,0.234-1.033,0.273
		c-0.348,0.039-0.692,0.031-1.033-0.021c-0.339-0.055-0.669-0.154-0.989-0.299s-0.619-0.328-0.896-0.551s-0.529-0.48-0.755-0.775
		c-0.226-0.295-0.416-0.623-0.568-0.982c-0.228-0.537-0.347-1.08-0.359-1.63c-0.011-0.55,0.072-1.069,0.25-1.558
		c0.177-0.49,0.443-0.93,0.796-1.318c0.355-0.39,0.786-0.693,1.293-0.908c0.406-0.172,0.768-0.267,1.087-0.282
		c0.319-0.018,0.708,0.052,1.167,0.207l1.108-0.47l0.708,1.672L107.636,57.993z"/>
	<path fill="#F5F5F5" d="M117.054,59.16l0.775-0.237l-0.692-1.013l-2.393,0.734l-0.006,1.227l0.821-0.252l0.432,1.407l-2.953,0.906
		l-0.431-1.407l0.58-0.178l0.164-7.029l2.059-0.631l4.031,5.74l0.565-0.173l0.432,1.407l-2.953,0.906L117.054,59.16z
		 M114.747,57.205l1.57-0.48l-1.567-2.289L114.747,57.205z"/>
	<path fill="#F5F5F5" d="M121.708,57.732l0.746-0.129l-0.882-5.119l-0.747,0.129l-0.251-1.455l3.304-0.57l3.365,5.383l1.198-6.17
		l3.35-0.578l0.251,1.456l-0.746,0.128l0.882,5.119l0.737-0.127l0.249,1.45l-3,0.518l-0.25-1.45l0.55-0.095l-0.795-4.616
		l-1.373,6.385l-1.487,0.258l-3.448-5.391l0.769,4.457l0.598-0.104l0.25,1.451l-3.017,0.52L121.708,57.732z"/>
	<path fill="#F5F5F5" d="M134.886,49.043l3.756-0.178c0.417-0.019,0.806,0.027,1.163,0.143c0.356,0.113,0.667,0.275,0.931,0.486
		c0.265,0.209,0.476,0.455,0.633,0.738c0.156,0.283,0.242,0.582,0.257,0.896c0.018,0.379-0.022,0.736-0.119,1.073
		c-0.097,0.336-0.258,0.631-0.482,0.886c-0.225,0.254-0.514,0.46-0.869,0.619c-0.354,0.158-0.779,0.248-1.272,0.271l-1.132,0.054
		l0.073,1.55l0.745-0.034l0.069,1.47l-3.369,0.158l-0.069-1.469l0.843-0.041l-0.245-5.188l-0.843,0.04L134.886,49.043z
		 M137.579,50.395l0.102,2.184l0.736-0.035c0.406-0.018,0.727-0.119,0.958-0.303c0.232-0.183,0.338-0.46,0.321-0.832
		c-0.017-0.348-0.142-0.613-0.376-0.8c-0.235-0.186-0.57-0.27-1.006-0.249L137.579,50.395z"/>
	<path fill="#F5F5F5" d="M151.309,51.48c-0.008-0.127-0.043-0.248-0.104-0.364s-0.143-0.219-0.244-0.308
		c-0.102-0.09-0.221-0.163-0.354-0.221c-0.135-0.057-0.275-0.092-0.426-0.104c-0.135-0.012-0.264-0.006-0.383,0.012
		c-0.121,0.02-0.227,0.055-0.32,0.105c-0.092,0.053-0.168,0.123-0.227,0.211c-0.059,0.09-0.094,0.198-0.104,0.326
		c-0.014,0.16,0.012,0.291,0.074,0.392c0.061,0.1,0.145,0.185,0.248,0.255c0.104,0.069,0.221,0.127,0.35,0.174
		c0.129,0.046,0.254,0.096,0.375,0.148l1.434,0.611c0.197,0.088,0.381,0.201,0.549,0.34c0.168,0.141,0.311,0.304,0.426,0.493
		s0.203,0.402,0.258,0.64c0.057,0.238,0.072,0.503,0.051,0.791c-0.031,0.393-0.135,0.746-0.305,1.059
		c-0.17,0.313-0.396,0.576-0.676,0.787s-0.605,0.365-0.979,0.465c-0.375,0.1-0.783,0.13-1.227,0.095
		c-0.311-0.024-0.602-0.083-0.871-0.175c-0.271-0.093-0.516-0.213-0.734-0.365c-0.219-0.148-0.404-0.324-0.561-0.521
		s-0.273-0.416-0.352-0.656l-0.552-0.044l0.13-1.612l1.938,0.156l-0.025,0.332c-0.014,0.162,0,0.311,0.041,0.451
		s0.109,0.264,0.205,0.373c0.096,0.107,0.219,0.195,0.371,0.264s0.334,0.111,0.545,0.128c0.32,0.026,0.572-0.028,0.752-0.163
		s0.279-0.334,0.301-0.599c0.012-0.135-0.008-0.251-0.061-0.347c-0.051-0.096-0.121-0.178-0.209-0.249
		c-0.088-0.069-0.188-0.13-0.299-0.183c-0.109-0.053-0.219-0.1-0.326-0.145l-1.195-0.495c-0.225-0.091-0.441-0.208-0.646-0.354
		c-0.205-0.146-0.385-0.322-0.535-0.527c-0.15-0.207-0.264-0.443-0.34-0.71c-0.078-0.267-0.104-0.566-0.076-0.897
		c0.031-0.387,0.129-0.724,0.297-1.014c0.168-0.291,0.387-0.528,0.662-0.715c0.271-0.186,0.592-0.318,0.953-0.396
		c0.361-0.079,0.754-0.102,1.174-0.066c0.332,0.025,0.637,0.089,0.912,0.188c0.275,0.099,0.52,0.223,0.732,0.369
		s0.391,0.309,0.531,0.487c0.143,0.179,0.248,0.36,0.314,0.545l0.535,0.044l-0.131,1.616l-1.938-0.156L151.309,51.48z"/>
	<path fill="#F5F5F5" d="M156.121,56.469l0.83,0.145l0.9-5.168l-0.975-0.17l-0.18,1.036l-1.725-0.3l0.424-2.439l7.297,1.271
		l-0.424,2.44l-1.736-0.303l0.182-1.038l-1.107-0.192l-0.898,5.17l0.846,0.147l-0.252,1.45l-3.436-0.598L156.121,56.469z"/>
	<path fill="#F5F5F5" d="M166.461,60.387c-0.355-0.102-0.682-0.246-0.979-0.434c-0.295-0.188-0.559-0.411-0.789-0.666
		c-0.23-0.256-0.426-0.539-0.586-0.85c-0.158-0.311-0.277-0.641-0.354-0.988s-0.109-0.706-0.102-1.076
		c0.008-0.369,0.066-0.742,0.172-1.117c0.105-0.376,0.254-0.725,0.441-1.045s0.404-0.609,0.652-0.864s0.521-0.474,0.82-0.655
		c0.299-0.181,0.613-0.32,0.943-0.416c0.332-0.096,0.672-0.146,1.023-0.15c0.352-0.005,0.703,0.043,1.059,0.145
		c0.355,0.101,0.682,0.244,0.98,0.434c0.297,0.189,0.562,0.41,0.793,0.666s0.426,0.539,0.586,0.85
		c0.158,0.312,0.277,0.641,0.355,0.989s0.111,0.708,0.104,1.079c-0.008,0.372-0.066,0.746-0.172,1.121
		c-0.105,0.371-0.252,0.719-0.441,1.039c-0.188,0.32-0.406,0.608-0.656,0.863c-0.248,0.255-0.521,0.473-0.82,0.654
		s-0.615,0.32-0.945,0.416s-0.672,0.146-1.025,0.15S166.814,60.486,166.461,60.387z M166.922,58.764
		c0.299,0.085,0.592,0.099,0.879,0.04c0.285-0.058,0.551-0.173,0.793-0.345c0.242-0.171,0.453-0.39,0.635-0.656
		c0.182-0.268,0.32-0.566,0.414-0.896c0.094-0.334,0.135-0.663,0.119-0.988c-0.016-0.324-0.084-0.623-0.201-0.896
		s-0.283-0.511-0.494-0.709c-0.211-0.201-0.465-0.342-0.762-0.426c-0.295-0.085-0.586-0.097-0.871-0.039
		c-0.285,0.059-0.547,0.175-0.791,0.346c-0.242,0.172-0.455,0.391-0.641,0.658s-0.326,0.568-0.422,0.902
		c-0.094,0.33-0.131,0.658-0.113,0.98c0.018,0.324,0.086,0.622,0.201,0.895c0.117,0.273,0.281,0.51,0.492,0.709
		C166.371,58.538,166.625,58.68,166.922,58.764z"/>
	<path fill="#F5F5F5" d="M179.188,58.71c-0.078-0.34-0.17-0.597-0.275-0.768c-0.104-0.171-0.232-0.317-0.385-0.435
		c-0.154-0.117-0.324-0.215-0.514-0.291c-0.279-0.113-0.562-0.155-0.854-0.129c-0.289,0.029-0.562,0.115-0.824,0.259
		s-0.498,0.337-0.713,0.581c-0.215,0.243-0.387,0.524-0.514,0.843c-0.131,0.323-0.205,0.646-0.221,0.968
		c-0.018,0.324,0.018,0.627,0.104,0.909c0.088,0.282,0.225,0.534,0.414,0.755c0.188,0.221,0.426,0.39,0.711,0.504
		c0.199,0.081,0.398,0.125,0.598,0.129c0.199,0.005,0.391-0.016,0.574-0.066c0.184-0.049,0.355-0.121,0.52-0.216
		c0.162-0.095,0.301-0.204,0.422-0.33l1.422,1.097c-0.234,0.284-0.506,0.523-0.818,0.721c-0.311,0.197-0.646,0.34-1.01,0.428
		c-0.363,0.09-0.742,0.121-1.141,0.097c-0.396-0.026-0.797-0.12-1.201-0.284c-0.344-0.138-0.652-0.316-0.926-0.535
		c-0.275-0.22-0.514-0.469-0.715-0.747s-0.365-0.582-0.488-0.911c-0.125-0.328-0.207-0.668-0.244-1.021
		c-0.039-0.354-0.035-0.715,0.014-1.084c0.049-0.368,0.146-0.734,0.291-1.096c0.221-0.541,0.52-1.01,0.9-1.406
		c0.379-0.396,0.807-0.705,1.277-0.926s0.971-0.344,1.496-0.369c0.525-0.023,1.045,0.066,1.555,0.273
		c0.408,0.164,0.732,0.354,0.971,0.568c0.238,0.213,0.463,0.537,0.678,0.972l1.115,0.451l-0.68,1.684L179.188,58.71z"/>
	<path fill="#F5F5F5" d="M184.514,58.354l3.068,1.651l-0.699,1.301l-0.756-0.408l-1.121,2.088l3.369-0.768l0.746-1.387l2.445,1.316
		l-0.75,1.395l-0.535-0.287l-3.492,0.768l1.043,3.551l0.58,0.312l-0.754,1.404l-2.379-1.279l0.754-1.405l-1.066-3.55l-1.301,2.417
		l0.758,0.407l-0.697,1.297l-3.07-1.652l0.697-1.295l0.742,0.398l2.461-4.574l-0.742-0.398L184.514,58.354z"/>
	<path fill="#F5F5F5" d="M198.354,66.697l2.857,2.006l-0.848,1.209l-0.703-0.494l-2.986,4.25l0.705,0.494l-0.848,1.205l-2.857-2.006
		l0.846-1.205l0.695,0.488l1.197-1.706l-3.006-2.11l-1.197,1.704l0.703,0.493l-0.846,1.205l-2.854-2.003l0.846-1.204l0.691,0.484
		l2.984-4.25l-0.689-0.485l0.848-1.209l2.854,2.004l-0.85,1.209l-0.703-0.494l-0.973,1.385l3.008,2.11l0.973-1.385l-0.695-0.487
		L198.354,66.697z"/>
	<path fill="#F5F5F5" d="M200.791,79.26c-0.277-0.242-0.512-0.512-0.699-0.809c-0.189-0.296-0.332-0.609-0.432-0.938
		c-0.102-0.33-0.158-0.669-0.17-1.019c-0.01-0.35,0.023-0.698,0.102-1.045s0.199-0.686,0.365-1.017
		c0.164-0.332,0.375-0.645,0.631-0.938c0.256-0.295,0.537-0.548,0.844-0.759c0.307-0.21,0.625-0.377,0.959-0.504
		c0.332-0.126,0.672-0.208,1.02-0.244c0.348-0.037,0.691-0.029,1.031,0.025c0.34,0.053,0.67,0.152,0.99,0.298
		s0.619,0.339,0.896,0.581c0.279,0.242,0.514,0.512,0.703,0.809c0.189,0.299,0.334,0.613,0.434,0.941
		c0.102,0.329,0.158,0.668,0.17,1.018c0.01,0.351-0.023,0.699-0.1,1.047c-0.078,0.348-0.199,0.688-0.365,1.021
		c-0.166,0.332-0.377,0.646-0.633,0.94c-0.254,0.292-0.533,0.543-0.84,0.753c-0.307,0.211-0.627,0.378-0.961,0.503
		s-0.676,0.206-1.023,0.243c-0.346,0.037-0.689,0.028-1.029-0.025c-0.34-0.055-0.672-0.154-0.994-0.301
		C201.369,79.695,201.07,79.502,200.791,79.26z M201.898,77.986c0.234,0.205,0.494,0.342,0.779,0.41
		c0.283,0.07,0.572,0.078,0.863,0.025c0.293-0.052,0.576-0.16,0.855-0.324c0.277-0.163,0.529-0.375,0.754-0.635
		c0.229-0.262,0.404-0.543,0.527-0.844c0.125-0.301,0.191-0.6,0.201-0.896c0.01-0.299-0.039-0.582-0.145-0.853
		c-0.107-0.271-0.277-0.507-0.51-0.709c-0.23-0.202-0.488-0.337-0.771-0.405c-0.283-0.067-0.57-0.075-0.861-0.023
		c-0.293,0.053-0.58,0.16-0.861,0.322c-0.281,0.164-0.537,0.377-0.764,0.638c-0.227,0.26-0.4,0.54-0.521,0.841
		c-0.121,0.3-0.188,0.598-0.197,0.895c-0.012,0.297,0.035,0.58,0.143,0.85C201.496,77.549,201.666,77.785,201.898,77.986z"/>
	<path fill="#F5F5F5" d="M211.197,77.678l2.355,2.568l-1.086,0.998l-0.582-0.633l-3.826,3.514l1.199,1.305
		c0.031,0.034,0.072,0.059,0.123,0.073c0.049,0.015,0.102,0.021,0.156,0.017s0.107-0.015,0.158-0.033
		c0.053-0.018,0.096-0.042,0.129-0.074l0.803-0.737l1.178,1.282l-2.203,2.023l-4.402-4.796l1.084-0.995l0.57,0.62l3.826-3.512
		l-0.572-0.62L211.197,77.678z"/>
	<path fill="#F5F5F5" d="M211.902,88.271l0.439,0.616l4.229-3.016l-0.439-0.617l1.203-0.857l1.945,2.728l-3.389,5.368l6.078-1.6
		l1.975,2.769l-1.201,0.858l-0.441-0.617l-4.229,3.016l0.436,0.608l-1.199,0.854l-1.77-2.479l1.199-0.854l0.324,0.454l3.812-2.719
		l-6.348,1.533l-0.877-1.229l3.359-5.445l-3.682,2.626l0.354,0.493l-1.199,0.855l-1.777-2.492L211.902,88.271z"/>
</g>
<g>
	<g>
		<path fill="#FFFFFF" d="M52.59,133.724c1.583,1.531,2.474,3.047,2.708,6.357c0,0,0.463,1.395,0.579-0.105
			c0,0,1.696-8.895-3.551-9.84C52.326,130.136,51.007,132.194,52.59,133.724z"/>
		<path fill="#FFFFFF" d="M49.356,138.841c1.78,0.607,3.73,1.939,4.833,4.238c0,0,1.355-0.24,0.593-2.541
			c0,0-1.272-5.447-4.663-7.387C46.728,131.214,47.576,138.235,49.356,138.841z"/>
		<path fill="#FFFFFF" d="M48.886,148.431c3.424-0.926,4.75-2.723,5.217-3.627l0.037-0.238c-0.431-0.877-1.733-2.748-5.254-3.703
			c-2.41-0.652-2.932,2.088-2.932,2.088s-0.524,1.631,0,3.393C45.954,146.343,46.477,149.083,48.886,148.431z"/>
		<path fill="#FFFFFF" d="M55.298,149.22c-0.234,3.309-1.125,4.826-2.708,6.357c-1.583,1.529-0.264,3.59-0.264,3.59
			c5.247-0.947,3.551-9.84,3.551-9.84C55.761,147.825,55.298,149.22,55.298,149.22z"/>
		<path fill="#FFFFFF" d="M54.782,148.763c0.762-2.301-0.593-2.541-0.593-2.541c-1.102,2.299-3.052,3.631-4.833,4.238
			c-1.78,0.605-2.628,7.627,0.763,5.689S54.782,148.763,54.782,148.763z"/>
	</g>
	<g>
		<path fill="#FFFFFF" d="M234.875,133.724c-1.584,1.531-2.475,3.047-2.707,6.357c0,0-0.465,1.395-0.58-0.105
			c0,0-1.697-8.895,3.551-9.84C235.139,130.136,236.457,132.194,234.875,133.724z"/>
		<path fill="#FFFFFF" d="M238.109,138.841c-1.781,0.607-3.73,1.939-4.834,4.238c0,0-1.355-0.24-0.592-2.541
			c0,0,1.271-5.447,4.662-7.387C240.736,131.214,239.889,138.235,238.109,138.841z"/>
		<path fill="#FFFFFF" d="M238.578,148.431c-3.424-0.926-4.75-2.723-5.217-3.627l-0.037-0.238c0.432-0.877,1.732-2.748,5.254-3.703
			c2.41-0.652,2.932,2.088,2.932,2.088s0.525,1.631,0,3.393C241.51,146.343,240.988,149.083,238.578,148.431z"/>
		<path fill="#FFFFFF" d="M232.168,149.22c0.232,3.309,1.123,4.826,2.707,6.357c1.582,1.529,0.264,3.59,0.264,3.59
			c-5.248-0.947-3.551-9.84-3.551-9.84C231.703,147.825,232.168,149.22,232.168,149.22z"/>
		<path fill="#FFFFFF" d="M232.684,148.763c-0.764-2.301,0.592-2.541,0.592-2.541c1.104,2.299,3.053,3.631,4.834,4.238
			c1.779,0.605,2.627,7.627-0.764,5.689S232.684,148.763,232.684,148.763z"/>
	</g>
</g>
<g>
	<path fill="#F5F5F5" d="M149.361,89.37c-1.6-0.996-3.109-1.389-4.618-2.385c-0.936-0.634-2.234-2.143-3.32-3.44
		c-0.211,2.082-0.845,2.928-1.569,3.531c-1.54,1.207-2.505,1.569-3.833,2.294c-1.116,0.573-7.183,4.194-7.183,11.981
		s6.549,13.521,13.823,13.521c7.275,0,13.582-5.282,13.582-13.279C156.242,93.595,150.326,89.974,149.361,89.37z"/>
	<path fill="#272829" d="M146.91,108.109c0.483,0,0.997,0.029,1.358,0.271c0.363,0.242,0.574,0.785,0.695,1.087
		c0.119,0.302,0,0.481-0.242,0.603c-0.211,0.121-0.242,0.062-0.453-0.331s-0.393-0.785-1.449-0.785
		c-1.056,0-1.388,0.362-1.901,0.785c-0.513,0.422-0.694,0.573-0.875,0.331c-0.181-0.242-0.121-0.482,0.211-0.783
		c0.332-0.303,0.875-0.785,1.388-0.997C146.156,108.079,146.427,108.109,146.91,108.109L146.91,108.109z"/>
	<path fill="#272829" d="M141.899,111.549c0.604,0.483,1.509,0.876,3.441,0.876c1.931,0,3.291-0.543,3.894-0.995
		c0.271-0.212,0.393-0.031,0.422,0.089c0.029,0.122,0.09,0.304-0.121,0.514c-0.15,0.151-1.539,1.118-3.168,1.268
		c-1.63,0.151-3.833,0.241-5.161-0.965c-0.211-0.212-0.151-0.513,0-0.635c0.151-0.12,0.271-0.211,0.453-0.211
		S141.809,111.489,141.899,111.549L141.899,111.549z"/>
	<path fill="#272829" d="M134.777,106.057c0.03-2.354,2.233-4.558,5.01-4.588c3.531-0.029,5.976,3.501,7.756,3.472
		c1.51-0.03,4.406-2.987,5.826-2.987c1.508,0,1.932,1.567,1.932,2.504c0,0.936-0.303,2.626-1.027,3.682
		c-0.725,1.057-1.176,1.449-2.021,1.389c-1.086-0.09-3.26-3.471-4.648-3.531c-1.75-0.061-5.553,3.651-8.541,3.651
		c-1.811,0-2.354-0.271-2.958-0.663C135.199,108.35,134.747,107.385,134.777,106.057L134.777,106.057z"/>
</g>
<g>
	<g>
		
			<rect x="69.208" y="144.226" transform="matrix(0.7071 0.7071 -0.7071 0.7071 144.0322 -58.424)" fill="#FFFFFF" width="146.665" height="0.851"/>
	</g>
	<g>
		
			<rect x="142.115" y="71.319" transform="matrix(0.7071 0.7071 -0.7071 0.7071 144.0331 -58.424)" fill="#FFFFFF" width="0.851" height="146.665"/>
	</g>
</g>
<polygon fill="#F5F5F5" points="105.613,142.402 99.1,135.889 92.587,142.402 85.45,135.266 85.45,154.14 112.851,154.14 
	112.851,135.164 "/>
<polygon fill="#F5F5F5" points="193.035,142.402 186.521,135.889 180.008,142.402 172.871,135.266 172.871,154.14 200.273,154.14 
	200.273,135.164 "/>
<polygon fill="#F5F5F5" points="149.004,183.441 142.49,176.928 135.977,183.441 128.84,176.305 128.84,195.179 156.24,195.179 
	156.24,176.203 "/>
</svg>
